<svg xmlns="http://www.w3.org/2000/svg" viewBox="0 0 145 120">
    <defs>
        <linearGradient id="a" x1="80.019%" x2="31.038%" y1="19.631%" y2="78.807%">
            <stop offset="0%" stop-color="#00E96E"/>
            <stop offset="100%" stop-color="#006731"/>
        </linearGradient>
        <linearGradient id="b" x1="46.512%" x2="58.959%" y1="-42.406%" y2="106.236%">
            <stop offset="0%" stop-color="#00B455"/>
            <stop offset="100%" stop-color="#027438"/>
        </linearGradient>
        <linearGradient id="c" x1="50%" x2="77.409%" y1="32.189%" y2="67.811%">
            <stop offset="0%" stop-color="#299AFF"/>
            <stop offset="100%" stop-color="#00BAFC"/>
        </linearGradient>
        <linearGradient id="d" x1="50%" x2="77.409%" y1="23.949%" y2="76.051%">
            <stop offset="0%" stop-color="#0086FE"/>
            <stop offset="100%" stop-color="#00BAFC"/>
        </linearGradient>
    </defs>
    <g fill="none" fill-rule="evenodd">
        <g fill="#ECF0F2" fill-rule="nonzero">
            <path d="M128.14 18.553c.691.724 1.36 1.462 2.007 2.212l-84.382 84.382a60.509 60.509 0 0 1-2.212-2.006l84.588-84.588zm-2.177-2.173L41.38 100.963a60.482 60.482 0 0 1-2.001-2.217l84.367-84.367c.751.645 1.49 1.312 2.217 2.001zm6.143 6.776a59.69 59.69 0 0 1 1.88 2.556l-83.274 83.274a59.69 59.69 0 0 1-2.556-1.88l83.95-83.95zm-10.757-10.73L37.426 96.35a59.677 59.677 0 0 1-1.874-2.563l83.234-83.234c.867.599 1.722 1.224 2.563 1.874zM135.71 28.34a59.352 59.352 0 0 1 1.633 2.804l-81.2 81.2a59.352 59.352 0 0 1-2.804-1.633L135.71 28.34zM116.154 8.833l-82.32 82.321a59.349 59.349 0 0 1-1.627-2.81l81.136-81.137a59.349 59.349 0 0 1 2.811 1.626zm22.66 25.188a59.38 59.38 0 0 1 1.363 3.076l-78.08 78.08a59.38 59.38 0 0 1-3.076-1.363l79.793-79.793zm-28.356-28.28L30.742 85.459a59.384 59.384 0 0 1-1.355-3.081l77.99-77.99c1.037.421 2.064.873 3.081 1.355zm30.91 34.515a59.628 59.628 0 0 1 1.006 3.21l-73.907 73.908a59.628 59.628 0 0 1-3.211-1.007l76.111-76.111zM104.208 3.203L28.203 79.21a59.637 59.637 0 0 1-.998-3.218L100.99 2.205c1.08.302 2.153.635 3.218.998zm39.036 43.742c.258 1.178.48 2.363.667 3.552l-68.415 68.415a59.944 59.944 0 0 1-3.552-.667l71.3-71.3zM97.504 1.342L26.342 72.504a59.951 59.951 0 0 1-.656-3.561L93.943.686c1.192.182 2.38.401 3.56.656zm46.885 53.026c.127 1.4.205 2.803.233 4.207l-61.047 61.047a60.169 60.169 0 0 1-4.207-.233l65.021-65.02zM90.06.22l-64.84 64.84A60.172 60.172 0 0 1 25 60.84L85.84 0c1.408.024 2.815.097 4.219.219zm54.49 62.778a60.133 60.133 0 0 1-.462 4.9l-51.19 51.19a60.133 60.133 0 0 1-4.9.462l56.552-56.552zM81.401.09L25.089 56.401c.094-1.645.256-3.287.485-4.922L76.479.574c1.635-.23 3.277-.39 4.922-.485zm61.717 73.127a59.723 59.723 0 0 1-1.786 6.223l-36.893 36.893a59.723 59.723 0 0 1-6.223 1.786l44.902-44.902zM71.132 1.573l-44.56 44.559a59.71 59.71 0 0 1 1.837-6.275L64.857 3.409a59.71 59.71 0 0 1 6.275-1.836zm66.966 85.45a59.803 59.803 0 0 1-10.991 15.084 59.803 59.803 0 0 1-15.083 10.99l26.074-26.073zM57.16 6.758L31.757 32.16a59.82 59.82 0 0 1 10.762-14.641A59.82 59.82 0 0 1 57.16 6.757z"/>
            <circle cx="60" cy="60" r="60"/>
        </g>
        <g fill-rule="nonzero">
            <path fill="url(#a)" d="M55.26 0H16.858C7.548 0 0 7.548 0 16.858c0 6.735 3.95 12.548 9.66 15.248a6.554 6.554 0 0 1 3.763 5.92v3.617c0 1.375 1.777 1.923 2.55.787l3.994-5.857a6.542 6.542 0 0 1 5.405-2.857H55.26c9.31 0 16.858-7.547 16.858-16.858C72.118 7.548 64.57 0 55.26 0z" transform="matrix(-1 0 0 1 123.913 53.228)"/>
            <path fill="url(#b)" d="M6.442 16.858C6.442 7.548 13.99 0 23.3 0h-6.442C7.548 0 0 7.548 0 16.858c0 6.735 3.95 12.548 9.659 15.248a6.553 6.553 0 0 1 3.763 5.92v3.617c0 1.375 1.777 1.923 2.551.787l3.785-5.552a6.56 6.56 0 0 0-3.657-4.772c-5.709-2.7-9.659-8.513-9.659-15.248z" transform="matrix(-1 0 0 1 123.913 53.228)"/>
            <g>
                <path fill="url(#c)" d="M55.26 0c9.31 0 16.857 7.548 16.857 16.858 0 6.735-3.949 12.547-9.658 15.248a6.553 6.553 0 0 0-3.763 5.92v3.617c0 1.374-1.777 1.923-2.552.787l-3.994-5.858a6.54 6.54 0 0 0-5.404-2.856H16.858C7.548 33.716 0 26.17 0 16.858 0 7.548 7.548 0 16.858 0H55.26z" transform="matrix(-1 0 0 1 94.523 25)"/>
                <path fill="url(#d)" d="M23.796 31.57c-9.31 0-16.858-7.55-16.858-16.859 0-6.138 3.28-11.509 8.183-14.457C6.627 1.124 0 8.299 0 17.024c0 9.31 7.548 16.857 16.858 16.857h29.888a6.54 6.54 0 0 1 5.404 2.857l3.994 5.857c.775 1.136 2.552.588 2.552-.787v-3.617c0-1.125.29-2.203.813-3.15l-.421-.615a6.539 6.539 0 0 0-5.404-2.857H23.796z" transform="matrix(-1 0 0 1 94.523 25)"/>
            </g>
        </g>
        <text fill="#FFF" font-family="GreycliffCF-Bold, Greycliff CF" font-size="13" font-weight="bold" letter-spacing="-.244" transform="translate(21 25)">
            <tspan x="11.001" y="20">Merhaba</tspan>
        </text>
        <text fill="#FFF" font-family="GreycliffCF-Bold, Greycliff CF" font-size="13" font-weight="bold" letter-spacing="-.244" transform="translate(21 25)">
            <tspan x="48.22" y="48">Dünya</tspan>
        </text>
    </g>
</svg>
