<svg xmlns="http://www.w3.org/2000/svg" viewBox="0 0 145 120">
    <defs>
        <linearGradient id="a" x1="25.618%" x2="62.804%" y1="70.614%" y2="26.534%">
            <stop offset="0%" stop-color="#276AEA"/>
            <stop offset="100%" stop-color="#1A297F"/>
        </linearGradient>
        <linearGradient id="b" x1="42.781%" x2="65.2%" y1="154.413%" y2="0%">
            <stop offset="0%" stop-color="#276AEA"/>
            <stop offset="100%" stop-color="#1A297F"/>
        </linearGradient>
        <linearGradient id="c" x1="16.038%" x2="83.234%" y1="15.806%" y2="85.858%">
            <stop offset="0%" stop-color="#20B0FE"/>
            <stop offset="100%" stop-color="#00E96E"/>
        </linearGradient>
    </defs>
    <g fill="none" fill-rule="evenodd">
        <g fill="#ECF0F2" fill-rule="nonzero">
            <path d="M128.14 18.553c.691.724 1.36 1.462 2.007 2.212l-84.382 84.382a60.509 60.509 0 0 1-2.212-2.006l84.588-84.588zm-2.177-2.173L41.38 100.963a60.482 60.482 0 0 1-2.001-2.217l84.367-84.367c.751.645 1.49 1.312 2.217 2.001zm6.143 6.776a59.69 59.69 0 0 1 1.88 2.556l-83.274 83.274a59.69 59.69 0 0 1-2.556-1.88l83.95-83.95zm-10.757-10.73L37.426 96.35a59.677 59.677 0 0 1-1.874-2.563l83.234-83.234c.867.599 1.722 1.224 2.563 1.874zM135.71 28.34a59.352 59.352 0 0 1 1.633 2.804l-81.2 81.2a59.352 59.352 0 0 1-2.804-1.633L135.71 28.34zM116.154 8.833l-82.32 82.321a59.349 59.349 0 0 1-1.627-2.81l81.136-81.137a59.349 59.349 0 0 1 2.811 1.626zm22.66 25.188a59.38 59.38 0 0 1 1.363 3.076l-78.08 78.08a59.38 59.38 0 0 1-3.076-1.363l79.793-79.793zm-28.356-28.28L30.742 85.459a59.384 59.384 0 0 1-1.355-3.081l77.99-77.99c1.037.421 2.064.873 3.081 1.355zm30.91 34.515a59.628 59.628 0 0 1 1.006 3.21l-73.907 73.908a59.628 59.628 0 0 1-3.211-1.007l76.111-76.111zM104.208 3.203L28.203 79.21a59.637 59.637 0 0 1-.998-3.218L100.99 2.205c1.08.302 2.153.635 3.218.998zm39.036 43.742c.258 1.178.48 2.363.667 3.552l-68.415 68.415a59.944 59.944 0 0 1-3.552-.667l71.3-71.3zM97.504 1.342L26.342 72.504a59.951 59.951 0 0 1-.656-3.561L93.943.686c1.192.182 2.38.401 3.56.656zm46.885 53.026c.127 1.4.205 2.803.233 4.207l-61.047 61.047a60.169 60.169 0 0 1-4.207-.233l65.021-65.02zM90.06.22l-64.84 64.84A60.172 60.172 0 0 1 25 60.84L85.84 0c1.408.024 2.815.097 4.219.219zm54.49 62.778a60.133 60.133 0 0 1-.462 4.9l-51.19 51.19a60.133 60.133 0 0 1-4.9.462l56.552-56.552zM81.401.09L25.089 56.401c.094-1.645.256-3.287.485-4.922L76.479.574c1.635-.23 3.277-.39 4.922-.485zm61.717 73.127a59.723 59.723 0 0 1-1.786 6.223l-36.893 36.893a59.723 59.723 0 0 1-6.223 1.786l44.902-44.902zM71.132 1.573l-44.56 44.559a59.71 59.71 0 0 1 1.837-6.275L64.857 3.409a59.71 59.71 0 0 1 6.275-1.836zm66.966 85.45a59.803 59.803 0 0 1-10.991 15.084 59.803 59.803 0 0 1-15.083 10.99l26.074-26.073zM57.16 6.758L31.757 32.16a59.82 59.82 0 0 1 10.762-14.641A59.82 59.82 0 0 1 57.16 6.757z"/>
            <circle cx="60" cy="60" r="60"/>
        </g>
        <path fill="url(#a)" d="M28.388.374a1.276 1.276 0 0 0-1.707-.088c-2.676 2.174-5.446 3.8-8.232 4.834a1.276 1.276 0 0 0-.512.351c-.274.31-.55.626-.825.947-4.44 5.178-8.1 10.764-10.876 16.604C2.747 30.362.653 38.116.013 46.07a3.834 3.834 0 0 0 3.82 4.137 3.849 3.849 0 0 0 3.815-3.522c.563-6.99 2.4-13.813 5.462-20.28 2.468-5.214 5.733-10.218 9.706-14.872.168-.196.336-.39.504-.582.104-.12.186-.258.24-.408 1.029-2.867 2.683-5.713 4.916-8.461a1.276 1.276 0 0 0-.088-1.708z" transform="scale(-1 1) rotate(3 -1037.752 -1780.927)"/>
        <path fill="url(#b)" d="M26.68.286a34.412 34.412 0 0 1-2.429 1.805C18.862 9.542 10.931 21.48 9.039 25.476c-3.061 6.468-4.899 13.291-5.462 20.28-.122 1.516-1.138 2.776-2.498 3.283a3.813 3.813 0 0 0 2.754 1.169 3.849 3.849 0 0 0 3.815-3.523c.563-6.99 2.4-13.813 5.462-20.28 2.468-5.214 5.733-10.218 9.706-14.871.168-.197.336-.39.504-.583.104-.12.186-.258.24-.408 1.029-2.866 2.683-5.713 4.916-8.461A1.276 1.276 0 0 0 26.681.286z" transform="scale(-1 1) rotate(3 -1037.752 -1780.927)"/>
        <g fill-rule="nonzero">
            <path fill="url(#c)" d="M62.622 32.537c1.835-1.516 2.754-3.825 2.365-6.259-.497-3.102-3.276-6.551-9.588-6.932-4.803-.289-9.138 1.124-12.704 3.034 1.91-3.566 3.323-7.9 3.034-12.704-.38-6.312-3.83-9.091-6.932-9.588-2.433-.39-4.743.53-6.26 2.365C31.022.618 28.714-.301 26.279.088c-3.102.497-6.551 3.277-6.932 9.588-.29 4.803 1.124 9.137 3.034 12.704-3.566-1.91-7.902-3.325-12.704-3.034-6.311.38-9.09 3.83-9.588 6.932-.39 2.434.53 4.743 2.365 6.26C.618 34.053-.301 36.362.088 38.796c.497 3.101 3.277 6.551 9.588 6.932 4.803.288 9.138-1.124 12.704-3.034-1.91 3.566-3.323 7.9-3.034 12.704.38 6.311 3.83 9.09 6.932 9.587.37.06.739.089 1.101.089 2.018 0 3.873-.898 5.159-2.453 1.516 1.835 3.826 2.754 6.259 2.365 3.102-.497 6.551-3.276 6.932-9.588.29-4.803-1.123-9.137-3.034-12.704 3.567 1.91 7.901 3.322 12.704 3.034 6.312-.38 9.091-3.83 9.588-6.932.39-2.434-.53-4.743-2.365-6.26z" transform="translate(38 26)"/>
            <path fill="#03E37D" d="M83.916 35.675c-.38-6.311-3.83-9.09-6.932-9.587A6.664 6.664 0 0 0 73 26.66c2.493 1.161 4.776 3.95 5.08 9.015.238 3.94-1.163 8.702-2.729 12.255-.41.933.423 1.934 1.415 1.698 1.221-.292 2.53-.7 4.116-1.248 1.91-3.567 3.323-7.901 3.034-12.705z" opacity=".5"/>
            <path fill="#1BB7EA" d="M83.916 80.987c-.38 6.312-3.83 9.091-6.932 9.588A6.664 6.664 0 0 1 73 90.002c2.493-1.16 4.776-3.95 5.08-9.015.238-3.94-1.163-8.702-2.729-12.255-.41-.933.423-1.933 1.415-1.697 1.221.292 2.53.699 4.116 1.248 1.91 3.567 3.323 7.9 3.034 12.704z" opacity=".534"/>
        </g>
    </g>
</svg>
