<svg xmlns="http://www.w3.org/2000/svg" width="249" height="34" viewBox="0 0 249 34">
    <g fill="none" fill-rule="evenodd">
        <g fill-rule="nonzero">
            <g>
                <path fill="#034EA2" d="M46.792 8.667H47.792V26H46.792z" transform="translate(-130.000000, -33.000000) translate(130.000000, 33.000000)"/>
                <g fill="#034EA2">
                    <path d="M16.522 9.31v.764c0 4.541-3.014 8.052-7.899 8.052C3.701 18.126 0 14.196 0 9.273 0 4.426 3.778.534 8.585.534c2.29 0 4.198.992 5.762 2.328.153.153.19.343.038.496l-.763.763c-.153.153-.343.153-.496 0-1.26-1.068-2.71-1.717-4.503-1.717-3.663 0-6.677 2.976-6.677 6.869 0 4.006 2.938 7.021 6.677 7.021 3.473 0 5.991-2.328 6.067-5.61h-5.8c-.228 0-.381-.152-.381-.381v-.992c0-.23.153-.382.382-.382h7.25c.228 0 .381.153.381.382zM29.61 11.333c0 .84-.115 1.221-.725 1.221h-8.967c.305 2.214 1.946 3.816 4.426 3.816 1.488 0 2.48-.496 3.282-1.144.152-.153.305-.23.496-.039l.458.458c.19.191.228.382.038.573-1.107 1.183-2.671 1.831-4.465 1.831-3.548 0-6.067-2.747-6.067-6.22 0-3.434 2.404-6.181 5.877-6.181 3.472 0 5.647 2.67 5.647 5.685zm-9.73-.229h8.089c-.114-2.175-1.717-3.892-4.006-3.892-2.252.038-3.816 1.68-4.083 3.892zM32.166 0h1.107c.229 0 .381.153.381.382v17.095c0 .229-.152.382-.381.382h-1.107c-.229 0-.381-.153-.381-.382V.343c0-.229.152-.343.381-.343zM47.315 11.333c0 .84-.115 1.221-.725 1.221h-8.967c.305 2.214 1.946 3.816 4.426 3.816 1.488 0 2.48-.496 3.281-1.144.153-.153.306-.23.496-.039l.458.458c.191.191.23.382.039.573-1.107 1.183-2.671 1.831-4.465 1.831-3.548 0-6.067-2.747-6.067-6.22 0-3.434 2.404-6.181 5.876-6.181 3.473 0 5.648 2.67 5.648 5.685zm-9.73-.229h8.089c-.115-2.175-1.717-3.892-4.007-3.892-2.25.038-3.815 1.68-4.082 3.892zM58.495 14.768c.19-.191.381-.153.534 0l.61.572c.153.153.153.344.038.496-1.106 1.298-2.709 2.137-4.655 2.137-3.434 0-5.99-2.747-5.99-6.144 0-3.51 2.556-6.258 5.99-6.258 1.87 0 3.434.84 4.58 2.137.152.153.114.382-.039.496l-.61.573c-.153.152-.344.152-.535 0-.725-.65-1.526-1.527-3.396-1.527-2.48 0-4.235 1.985-4.235 4.58 0 2.48 1.755 4.464 4.235 4.464 1.908.038 2.786-.84 3.473-1.526zM72.689 11.333c0 .84-.114 1.221-.725 1.221h-8.967c.305 2.214 1.946 3.816 4.426 3.816 1.488 0 2.48-.496 3.282-1.144.152-.153.305-.23.496-.039l.458.458c.19.191.229.382.038.573-1.107 1.183-2.671 1.831-4.464 1.831-3.549 0-6.067-2.747-6.067-6.22 0-3.434 2.403-6.181 5.876-6.181 3.472 0 5.647 2.67 5.647 5.685zm-9.692-.229h8.09c-.115-2.175-1.718-3.892-4.007-3.892-2.251.038-3.854 1.68-4.083 3.892zM86.311 6.22v11.371c0 3.702-3.281 5.076-6.067 5.076-1.87 0-3.434-.458-4.579-1.183-.19-.115-.229-.306-.114-.496l.343-.65c.115-.19.305-.228.496-.152.992.496 2.099.84 3.74.84 2.098 0 4.388-.916 4.388-3.435v-1.946c-.916 1.336-2.404 2.214-4.274 2.214-3.434 0-5.876-2.748-5.876-6.144 0-3.358 2.442-6.144 5.876-6.144 1.87 0 3.282.84 4.235 2.137l.115-1.526c.038-.23.153-.382.382-.382h.992c.19.038.343.191.343.42zm-1.679 5.495c0-2.366-1.793-4.427-4.235-4.427s-4.236 1.947-4.236 4.427c0 2.518 1.794 4.503 4.236 4.503 2.442 0 4.235-2.137 4.235-4.503zM77.23 1.107c-.038-.23.114-.382.343-.382h.534c.23 0 .344.115.382.343.19.916.916 1.641 2.06 1.641 1.145 0 1.87-.725 2.06-1.64.039-.23.153-.344.382-.344h.535c.229 0 .381.115.343.382-.153 1.602-1.412 2.9-3.358 2.9-1.946 0-3.129-1.298-3.281-2.9zM89.135 1.832c0-.65.496-1.183 1.183-1.183.648 0 1.144.496 1.144 1.183s-.496 1.183-1.144 1.183c-.687-.039-1.183-.535-1.183-1.183zm.61 4.006h1.107c.229 0 .381.153.381.382v11.219c0 .229-.152.381-.381.381h-1.107c-.229 0-.381-.152-.381-.381V6.22c0-.229.152-.382.381-.382zM111.952 1.145l-5.036 8.395v7.899c0 .229-.153.381-.382.381h-1.183c-.229 0-.381-.152-.381-.381v-7.9l-5.037-8.394c-.153-.23-.038-.458.229-.458h1.26c.19 0 .343.076.457.229l4.083 6.792 4.083-6.792c.114-.153.229-.23.458-.23h1.259c.229.039.343.23.19.459zM123.132 6.22v11.219c0 .229-.152.381-.381.381h-.992c-.23 0-.344-.152-.382-.381l-.114-1.527c-.916 1.26-2.366 2.061-4.236 2.061-3.434 0-5.876-2.747-5.876-6.144 0-3.51 2.442-6.258 5.876-6.258 1.87 0 3.32.878 4.236 2.214l.114-1.603c.038-.23.153-.382.382-.382h.992c.229.038.381.191.381.42zm-1.717 5.61c0-2.481-1.793-4.58-4.235-4.58s-4.235 1.946-4.235 4.58c0 2.518 1.793 4.502 4.235 4.502s4.235-1.984 4.235-4.503zM134.847 7.136c0 .152-.038.343-.153.458l-7.364 8.662h7.135c.229 0 .382.153.382.381v.84c0 .229-.153.382-.382.382h-8.929c-.229 0-.381-.153-.381-.382v-.916c0-.152.038-.343.152-.458l7.327-8.662h-7.136c-.229 0-.381-.153-.381-.382V6.22c0-.229.152-.382.381-.382h8.929c.229 0 .382.153.382.382v.916h.038zM147.744 6.22v11.219c0 .229-.153.381-.382.381h-.992c-.229 0-.343-.152-.382-.381l-.114-1.527c-.916 1.26-2.366 2.061-4.235 2.061-3.435 0-5.877-2.747-5.877-6.144 0-3.51 2.442-6.258 5.877-6.258 1.87 0 3.32.878 4.235 2.214l.114-1.603c.039-.23.153-.382.382-.382h.992c.267.038.382.191.382.42zm-1.68 5.61c0-2.481-1.793-4.58-4.235-4.58s-4.235 1.946-4.235 4.58c0 2.518 1.793 4.502 4.235 4.502s4.236-1.984 4.236-4.503zM160.412 10.341v7.098c0 .229-.153.381-.382.381h-1.106c-.23 0-.382-.152-.382-.381v-6.983c0-2.137-1.068-3.244-2.747-3.244-2.366 0-3.663 2.328-3.663 2.824v7.403c0 .229-.153.381-.382.381h-1.068c-.23 0-.382-.152-.382-.381V6.22c0-.229.153-.382.382-.382h.992c.229 0 .343.153.381.382l.115 1.679c.878-1.297 2.213-2.328 4.045-2.328 2.518 0 4.197 1.565 4.197 4.77zM163.35 0h1.106c.23 0 .382.153.382.382v17.095c0 .229-.153.382-.382.382h-1.106c-.229 0-.382-.153-.382-.382V.343c0-.229.153-.343.382-.343zM178.956 6.22v11.219c0 .229-.153.381-.381.381h-.993c-.228 0-.343-.152-.381-.381l-.115-1.527c-.915 1.26-2.365 2.061-4.235 2.061-3.434 0-5.876-2.747-5.876-6.144 0-3.51 2.442-6.258 5.876-6.258 1.87 0 3.32.878 4.235 2.214l.115-1.603c.038-.23.153-.382.381-.382h.993c.228.038.381.191.381.42zm-1.717 5.61c0-2.481-1.793-4.58-4.235-4.58s-4.236 1.946-4.236 4.58c0 2.518 1.794 4.502 4.236 4.502 2.442 0 4.235-1.984 4.235-4.503zM187.77 6.373l-.381.84c-.115.19-.23.228-.458.152-.229-.077-.458-.115-.954-.115-1.488 0-2.671 1.107-2.671 2.671v7.518c0 .229-.153.381-.382.381h-1.106c-.23 0-.382-.152-.382-.381V6.22c0-.229.153-.382.382-.382h.992c.229 0 .343.153.382.382l.114 1.068c.649-.992 1.679-1.679 2.938-1.679.572 0 1.107.153 1.45.382.153.076.19.153.076.382z" transform="translate(-130.000000, -33.000000) translate(130.000000, 33.000000) translate(60.829749, 8.000000)"/>
                </g>
                <path fill="#FFC40C" d="M31.441 7.95c-1.273-1.967-2.816-3.557-4.59-4.806-1.813-1.25-3.858-2.157-6.172-2.687-3.78-.87-7.445-.492-10.994 1.097-1.967.87-3.703 2.044-5.169 3.558C2.664 7.005 1.314 9.124.466 11.51c0 .038 0 .038-.039.075-.038.076-.038.152-.077.265-.849 2.763-.039 4.277 1.196 2.99l.154-.151c0-.038.039-.038.039-.076C3.205 12.833 5.48 11.32 5.48 11.32c.579-.416 1.196-.757 1.813-1.135.733-.416 1.466-.795 2.2-1.06 0 0 .655-.303.848-1.173v-.038-.038c.116-.757.926-2.8 3.24-2.914.733-.114 1.427.038 2.083.34 1.119.53 1.967 1.552 2.122 2.801.154.984-.116 1.93-.617 2.688-.039.037-.078.075-.078.113l-.038.038c-.425.53-1.042.984-1.736 1.211-.424.151-.849.227-1.273.227-.27.038-.54 0-.849-.076-.308-.075-.617-.189-.887-.302-.386-.19-.771-.417-.887-.568-.116-.114-.232-.151-.347-.19-.232-.037-.425 0-.579.076-.077.038-.154.076-.193.114-.54.454-1.08.908-1.581 1.438-1.312 1.363-2.392 2.877-2.932 3.634-.27.416-.54.87-.771 1.324-.232.417-1.273 3.028-1.466 3.445-.309.681.27-.795 0 0 0 .038-.039.075-.039.113 0 .038-.038.114-.038.152 0 .038-.039.113-.039.151-1.582 5.337 1.273 8.403 3.665 5.185.115-.189.27-.416.385-.605 2.508-4.24 7.638-7.343 7.638-7.343.309-.19.617-.378.964-.568 0 0 .039 0 .078-.037.887-.493 1.774-.947 2.7-1.325.81-.379 1.697-.72 2.43-.87 0 0 .849-.228 1.08-1.25.154-.757.694-1.817 1.967-2.422.309-.152.579-.265.888-.34.347-.076.655-.114 1.003-.076.192 0 .385.037.54.075 1.581.303 2.854 1.552 3.047 3.217.231 2.006-1.196 3.861-3.24 4.088-1.003.114-1.929-.076-2.739-.681-.887-.379-1.582-.114-1.813 0-.772.416-1.504.87-2.237 1.362-1.312.947-2.353 1.969-2.778 2.385-.926.908-1.697 1.892-2.43 2.952-.039.038-.077.114-.116.19 0 0 0 .037-.038.037-.733 1.136-1.505 2.574-2.122 4.315-.038.151-.077.265-.154.416-.656 2.234.771 3.142 2.469 3.445 0 0 1.311.265 3.24.113.116 0 .193 0 .308-.038.463-.075.965-.113 1.428-.189 3.279-.568 6.21-1.892 8.679-4.088 3.125-2.763 5.015-6.207 5.593-10.257.656-4.087-.154-7.948-2.43-11.43z" transform="translate(-130.000000, -33.000000) translate(130.000000, 33.000000)"/>
            </g>
        </g>
    </g>
</svg>
