<svg xmlns="http://www.w3.org/2000/svg" xmlns:xlink="http://www.w3.org/1999/xlink" viewBox="0 0 145 120">
    <defs>
        <linearGradient id="a" x1="26.254%" y1="60.279%" y2="45.078%">
            <stop offset="0%" stop-color="#276AEA"/>
            <stop offset="100%" stop-color="#1A297F"/>
        </linearGradient>
        <linearGradient id="b" x1="39.523%" x2="72.06%" y1="154.413%" y2="0%">
            <stop offset="0%" stop-color="#276AEA"/>
            <stop offset="100%" stop-color="#1A297F"/>
        </linearGradient>
        <linearGradient id="c" x1="63.244%" x2="41.634%" y1="-35.255%" y2="130.869%">
            <stop offset="0%" stop-color="#00E96E"/>
            <stop offset="100%" stop-color="#006731"/>
        </linearGradient>
        <linearGradient id="e" x1="50%" x2="63.417%" y1="0%" y2="100%">
            <stop offset="0%" stop-color="#0086FE"/>
            <stop offset="100%" stop-color="#00BAFC"/>
        </linearGradient>
        <path id="d" d="M35.636.053a3.074 3.074 0 0 1 2.453 3.59c-.25 1.344-.5 2.703-.826 3.992-.353 1.412-.808 2.802-1.436 4.133a19.383 19.383 0 0 1-2.086 3.424 25.244 25.244 0 0 1-2.863 3.155c-.918.869-1.835 1.61-2.795 2.228a.679.679 0 0 1-.092.06 1.828 1.828 0 0 0-.876 1.585v29.215a3.08 3.08 0 0 1-3.081 3.082 3.084 3.084 0 0 1-3.082-3.082V37.768a1.88 1.88 0 0 0-1.877-1.87h-.007a1.88 1.88 0 0 0-1.878 1.87v13.667a3.082 3.082 0 0 1-6.163 0V22.22c0-.66-.31-1.229-.876-1.585a.68.68 0 0 1-.091-.06c-.96-.618-1.878-1.36-2.796-2.228-.97-.91-1.963-1.97-2.863-3.155a19.506 19.506 0 0 1-2.086-3.424C1.687 10.434 1.232 9.047.88 7.635.554 6.343.303 4.987.053 3.642a3.074 3.074 0 1 1 6.043-1.136c.226 1.218.458 2.439.759 3.639.268 1.07.592 2.093 1.02 3.004.391.819.886 1.61 1.443 2.344a19.031 19.031 0 0 0 2.16 2.386c.65.607 1.271 1.119 1.91 1.528.55.353 1.101.628 1.677.826l.123.035c1.737.561 5.902.61 7.773 0h-.007l.123-.035a7.464 7.464 0 0 0 1.677-.826c.635-.41 1.26-.925 1.91-1.528a19.307 19.307 0 0 0 2.16-2.386 13.503 13.503 0 0 0 1.443-2.344c.428-.91.752-1.935 1.02-3.004.3-1.2.534-2.421.76-3.64a3.074 3.074 0 0 1 3.59-2.452zM19.064 1.267a5.925 5.925 0 0 1 5.92 5.919 5.92 5.92 0 1 1-5.92-5.92z"/>
        <linearGradient id="f" x1="50%" x2="57.167%" y1="0%" y2="72.199%">
            <stop offset="0%" stop-color="#2197FF"/>
            <stop offset="100%" stop-color="#00BAFC"/>
        </linearGradient>
    </defs>
    <g fill="none" fill-rule="evenodd">
        <g fill="#ECF0F2" fill-rule="nonzero">
            <path d="M128.14 18.553c.691.724 1.36 1.462 2.007 2.212l-84.382 84.382a60.509 60.509 0 0 1-2.212-2.006l84.588-84.588zm-2.177-2.173L41.38 100.963a60.482 60.482 0 0 1-2.001-2.217l84.367-84.367c.751.645 1.49 1.312 2.217 2.001zm6.143 6.776a59.69 59.69 0 0 1 1.88 2.556l-83.274 83.274a59.69 59.69 0 0 1-2.556-1.88l83.95-83.95zm-10.757-10.73L37.426 96.35a59.677 59.677 0 0 1-1.874-2.563l83.234-83.234c.867.599 1.722 1.224 2.563 1.874zM135.71 28.34a59.352 59.352 0 0 1 1.633 2.804l-81.2 81.2a59.352 59.352 0 0 1-2.804-1.633L135.71 28.34zM116.154 8.833l-82.32 82.321a59.349 59.349 0 0 1-1.627-2.81l81.136-81.137a59.349 59.349 0 0 1 2.811 1.626zm22.66 25.188a59.38 59.38 0 0 1 1.363 3.076l-78.08 78.08a59.38 59.38 0 0 1-3.076-1.363l79.793-79.793zm-28.356-28.28L30.742 85.459a59.384 59.384 0 0 1-1.355-3.081l77.99-77.99c1.037.421 2.064.873 3.081 1.355zm30.91 34.515a59.628 59.628 0 0 1 1.006 3.21l-73.907 73.908a59.628 59.628 0 0 1-3.211-1.007l76.111-76.111zM104.208 3.203L28.203 79.21a59.637 59.637 0 0 1-.998-3.218L100.99 2.205c1.08.302 2.153.635 3.218.998zm39.036 43.742c.258 1.178.48 2.363.667 3.552l-68.415 68.415a59.944 59.944 0 0 1-3.552-.667l71.3-71.3zM97.504 1.342L26.342 72.504a59.951 59.951 0 0 1-.656-3.561L93.943.686c1.192.182 2.38.401 3.56.656zm46.885 53.026c.127 1.4.205 2.803.233 4.207l-61.047 61.047a60.169 60.169 0 0 1-4.207-.233l65.021-65.02zM90.06.22l-64.84 64.84A60.172 60.172 0 0 1 25 60.84L85.84 0c1.408.024 2.815.097 4.219.219zm54.49 62.778a60.133 60.133 0 0 1-.462 4.9l-51.19 51.19a60.133 60.133 0 0 1-4.9.462l56.552-56.552zM81.401.09L25.089 56.401c.094-1.645.256-3.287.485-4.922L76.479.574c1.635-.23 3.277-.39 4.922-.485zm61.717 73.127a59.723 59.723 0 0 1-1.786 6.223l-36.893 36.893a59.723 59.723 0 0 1-6.223 1.786l44.902-44.902zM71.132 1.573l-44.56 44.559a59.71 59.71 0 0 1 1.837-6.275L64.857 3.409a59.71 59.71 0 0 1 6.275-1.836zm66.966 85.45a59.803 59.803 0 0 1-10.991 15.084 59.803 59.803 0 0 1-15.083 10.99l26.074-26.073zM57.16 6.758L31.757 32.16a59.82 59.82 0 0 1 10.762-14.641A59.82 59.82 0 0 1 57.16 6.757z"/>
            <circle cx="60" cy="60" r="60"/>
        </g>
        <path fill="url(#a)" d="M46.55 11.931a1.365 1.365 0 1 1-2.732 0V1.37a1.366 1.366 0 1 1 2.732 0V11.93zm13.254 2.104a1.363 1.363 0 0 1-1.67.97 1.373 1.373 0 0 1-.966-1.676L59.896 3.12a1.373 1.373 0 0 1 1.677-.968c.727.195 1.161.95.967 1.677l-2.732 10.201-.004.004zm12.262 5.46a1.364 1.364 0 0 1-2.365-1.359l5.285-9.149a1.361 1.361 0 1 1 2.361 1.36l-5.277 9.148h-.004zm10.427 8.457a1.37 1.37 0 0 1-1.934-1.937l7.469-7.47a1.363 1.363 0 0 1 1.934 0 1.364 1.364 0 0 1 0 1.935l-7.469 7.473zM9.806 26.015a1.37 1.37 0 0 1-1.934 1.938L.401 20.48a1.363 1.363 0 0 1 0-1.934 1.37 1.37 0 0 1 1.935 0l7.469 7.469zm10.861-7.882a1.368 1.368 0 0 1-.494 1.863 1.37 1.37 0 0 1-1.87-.494l-5.278-9.149a1.362 1.362 0 0 1 .494-1.864 1.368 1.368 0 0 1 1.864.495l5.284 9.149zm12.53-4.8a1.375 1.375 0 0 1-.967 1.676 1.377 1.377 0 0 1-1.676-.97L27.822 3.836c-.19-.727.24-1.479.97-1.676a1.364 1.364 0 0 1 1.67.967l2.732 10.208.003-.004z" transform="translate(27 16)"/>
        <path fill="url(#b)" d="M84.919 31.518a2.376 2.376 0 0 1 1.895 2.778c-.194 1.045-.392 2.093-.642 3.088-.275 1.087-.618 2.164-1.109 3.198-.451.96-1.009 1.846-1.613 2.648a19.644 19.644 0 0 1-2.206 2.439 16.32 16.32 0 0 1-2.163 1.726l-.075.042a1.43 1.43 0 0 0-.674 1.225v22.59a2.388 2.388 0 0 1-2.386 2.386 2.388 2.388 0 0 1-2.386-2.386V60.685c0-.795-.65-1.451-1.45-1.451h-.008c-.801 0-1.45.653-1.45 1.45v10.494a2.382 2.382 0 0 1-2.387 2.38 2.382 2.382 0 0 1-2.386-2.38V49.234a.29.29 0 0 0-.208-.286.3.3 0 0 0-.342.11c-.036.049-.074.098-.103.151-.47.692-.85 1.56-1.108 2.44-.01.056-.025.116-.035.176-.526 1.92-.502 3.921-.477 5.92l.007.006a2.372 2.372 0 0 1-2.361 2.39 2.37 2.37 0 0 1-2.39-2.355l-.008-.94c-.012-2.037.043-4.095.636-6.264.018-.074.043-.141.068-.215.391-1.352.977-2.715 1.743-3.84.812-1.187 1.843-2.154 3.082-2.68 2.054-.86 4.041-.384 5.937.06.427.103.861.209 1.136.265a9.481 9.481 0 0 0 2.055.173 6.06 6.06 0 0 0 1.602-.282l.092-.032a5.947 5.947 0 0 0 1.302-.642c.484-.318.971-.71 1.476-1.186a14.995 14.995 0 0 0 1.67-1.843c.426-.561.811-1.175 1.111-1.81.332-.703.583-1.494.79-2.323.234-.925.41-1.871.587-2.807a2.385 2.385 0 0 1 2.778-1.902zm-13.258.921a4.768 4.768 0 1 1-.005 9.532 4.768 4.768 0 0 1 .005-9.532z" transform="translate(27 16)"/>
        <path fill="url(#c)" d="M5.447 31.518a2.385 2.385 0 0 1 2.778 1.902c.176.936.353 1.882.586 2.807.208.83.458 1.62.79 2.322.3.636.685 1.25 1.112 1.81a14.995 14.995 0 0 0 1.67 1.844c.504.476.984.868 1.475 1.186.427.275.858.49 1.303.642l.091.032a6.06 6.06 0 0 0 1.603.282 9.385 9.385 0 0 0 2.047-.173c.282-.056.717-.162 1.144-.265 1.895-.444 3.882-.92 5.937-.06 1.239.526 2.27 1.493 3.081 2.68.766 1.125 1.352 2.488 1.744 3.84.025.074.05.141.067.215.685 2.503.653 4.857.628 7.204a2.37 2.37 0 0 1-2.39 2.355 2.372 2.372 0 0 1-2.36-2.39c.031-2.005.056-4.006-.47-5.926-.01-.06-.028-.12-.036-.177-.257-.879-.638-1.747-1.108-2.439-.028-.053-.067-.102-.102-.152a.3.3 0 0 0-.343-.109.29.29 0 0 0-.208.286v21.944a2.382 2.382 0 0 1-2.386 2.38 2.382 2.382 0 0 1-2.386-2.38V60.685c0-.798-.65-1.451-1.45-1.451-.81 0-1.459.656-1.459 1.45v10.568a2.388 2.388 0 0 1-2.386 2.386 2.388 2.388 0 0 1-2.386-2.386v-22.59c0-.508-.247-.95-.674-1.225l-.074-.042a16.32 16.32 0 0 1-2.164-1.726 19.644 19.644 0 0 1-2.206-2.44 15.127 15.127 0 0 1-1.613-2.647c-.49-1.034-.833-2.11-1.108-3.198-.251-.995-.449-2.043-.643-3.088a2.376 2.376 0 0 1 1.896-2.778zm13.257.921a4.762 4.762 0 0 1 4.766 4.769 4.763 4.763 0 0 1-4.766 4.765 4.768 4.768 0 0 1 0-9.534z" transform="translate(27 16)"/>
        <g transform="translate(53.117 35.845)">
            <mask id="g" fill="#fff">
                <use xlink:href="#d"/>
            </mask>
            <use fill="url(#e)" fill-rule="nonzero" xlink:href="#d"/>
            <path fill="url(#f)" fill-rule="nonzero" d="M6.096-.494c.226 1.218.458 2.439.759 3.639.268 1.07.592 2.093 1.02 3.004.391.819.886 1.61 1.443 2.344a19.031 19.031 0 0 0 2.16 2.386c.65.607 1.271 1.119 1.91 1.528.55.353 1.101.628 1.677.826l.123.035c1.737.561 3.902 2.61 5.773 2h-.007l.123-.035a7.464 7.464 0 0 0 1.677-.826c.635-.41 1.26-.925 1.91-1.528a19.307 19.307 0 0 0 2.16-2.386 13.503 13.503 0 0 0 1.443-2.344c.428-.91.752-1.935 1.02-3.004.3-1.2.534-2.421.76-3.64a3.074 3.074 0 1 1 6.042 1.137c-.25 1.345-.5 2.704-.826 3.993-.353 1.412-.808 2.802-1.436 4.133a19.383 19.383 0 0 1-2.086 3.424 25.244 25.244 0 0 1-2.863 3.155c-.918.869-1.835 1.61-2.795 2.228a.679.679 0 0 1-.092.06 1.828 1.828 0 0 0-.876 1.585v29.215a3.08 3.08 0 0 1-3.081 3.082 3.084 3.084 0 0 1-3.082-3.082H15.19a3.082 3.082 0 0 1-6.163 0V21.22c0-.66-.31-1.229-.876-1.585a.68.68 0 0 1-.091-.06c-.96-.618-1.878-1.36-2.796-2.228-.97-.91-1.963-1.97-2.863-3.155a19.506 19.506 0 0 1-2.086-3.424C-.313 9.434-.768 8.047-1.12 6.635c-.325-1.292-.576-2.648-.826-3.993A3.074 3.074 0 0 1 .506-.948c1.67-.31 5.279-1.216 5.59.454zm10.968.76a5.925 5.925 0 0 1 5.92 5.92 5.92 5.92 0 1 1-5.92-5.92z" mask="url(#g)"/>
        </g>
    </g>
</svg>
